<svg width="41" height="41" viewBox="0 0 41 41" fill="none" xmlns="http://www.w3.org/2000/svg">
<path d="M34.9531 0H6.04385C2.71973 0 0 2.71973 0 6.04385V34.9561C0 38.2803 2.71973 41 6.04385 41H34.9561C38.2803 41 41 38.2803 41 34.9561V6.04385C40.997 2.71973 38.2803 0 34.9531 0ZM34.5648 21.8833H29.6995V39.486H22.4197V21.8833H18.7783V15.8153H22.4197V12.1738C22.4197 7.22392 24.4746 4.27905 30.322 4.27905H35.1828V10.3456H32.1427C29.8702 10.3456 29.7191 11.1962 29.7191 12.7782L29.6995 15.8153H35.207L34.5648 21.8833Z" fill="black"/>
</svg>
