<svg width="41" height="41" viewBox="0 0 41 41" fill="none" xmlns="http://www.w3.org/2000/svg">
<path d="M0 2.93663C0 1.31456 1.34787 0 3.01094 0H37.9891C39.6521 0 41 1.31456 41 2.93663V38.0634C41 39.6854 39.6521 41 37.9891 41H3.01094C1.34787 41 0 39.6854 0 38.0634V2.93663ZM12.6664 34.3221V15.8081H6.51388V34.3221H12.6664ZM9.59144 13.2789C11.7362 13.2789 13.0713 11.8593 13.0713 10.0809C13.0329 8.26406 11.7388 6.88288 9.63244 6.88288C7.52606 6.88288 6.15 8.26663 6.15 10.0809C6.15 11.8593 7.48506 13.2789 9.55044 13.2789H9.59144ZM22.1682 34.3221V23.9824C22.1682 23.4289 22.2092 22.8754 22.3732 22.4808C22.8165 21.3764 23.8287 20.2309 25.5302 20.2309C27.757 20.2309 28.6462 21.9273 28.6462 24.4181V34.3221H34.7987V23.7031C34.7987 18.0144 31.7647 15.3699 27.716 15.3699C24.4514 15.3699 22.9882 17.1636 22.1682 18.4269V18.491H22.1272L22.1682 18.4269V15.8081H16.0182C16.0951 17.5454 16.0182 34.3221 16.0182 34.3221H22.1682Z" fill="#F5F5F5"/>
</svg>
