<svg width="26" height="26" viewBox="0 0 26 26" fill="none" xmlns="http://www.w3.org/2000/svg">
<path d="M25.9849 19.6403C25.7531 21.4019 24.8879 23.0188 23.5511 24.1892C22.2142 25.3595 20.4971 26.0032 18.7203 26C8.39816 26 1.17634e-05 17.6019 1.17634e-05 7.27981C-0.00317326 5.50307 0.640516 3.78592 1.81086 2.44908C2.9812 1.11225 4.59815 0.247138 6.35972 0.0153371C6.80518 -0.0390542 7.25628 0.0520779 7.64569 0.27513C8.03509 0.498181 8.34192 0.841189 8.52036 1.25295L11.266 7.38251V7.39811C11.4026 7.7133 11.459 8.05742 11.4302 8.39974C11.4014 8.74205 11.2883 9.0719 11.1009 9.35983C11.0775 9.39493 11.0528 9.42743 11.0268 9.45993L8.32015 12.6684C9.29387 14.647 11.3635 16.6984 13.3681 17.6747L16.5324 14.9824C16.5635 14.9563 16.596 14.932 16.6299 14.9096C16.9176 14.7177 17.2486 14.6006 17.5929 14.5688C17.9373 14.537 18.2841 14.5916 18.602 14.7276L18.6189 14.7354L24.7433 17.4797C25.1558 17.6575 25.4997 17.9641 25.7235 18.3535C25.9473 18.743 26.039 19.1944 25.9849 19.6403Z" fill="#01315F"/>
</svg>
